<?xml version="1.0" standalone="no"?>
<!DOCTYPE svg PUBLIC "-//W3C//DTD SVG 20010904//EN"
 "http://www.w3.org/TR/2001/REC-SVG-20010904/DTD/svg10.dtd">
<svg version="1.0" xmlns="http://www.w3.org/2000/svg"
 width="300.000000pt" height="346.000000pt" viewBox="0 0 300.000000 346.000000"
 preserveAspectRatio="xMidYMid meet">
<metadata>
Created by potrace 1.10, written by Peter Selinger 2001-2011
</metadata>
<g transform="translate(0.000000,346.000000) scale(0.100000,-0.100000)"
fill="#000000" stroke="none">
<path d="M1414 2862 c-89 -85 -192 -142 -409 -227 -290 -113 -360 -145 -438
-196 -126 -83 -171 -152 -170 -264 0 -62 11 -98 83 -300 l83 -230 -43 -120
c-122 -347 -123 -349 -123 -415 -1 -82 24 -139 86 -200 81 -80 174 -127 482
-245 227 -87 355 -155 441 -237 39 -37 78 -68 86 -68 9 0 27 15 41 34 68 89
201 162 527 291 319 126 427 191 488 293 24 41 27 57 27 132 0 81 -4 95 -81
309 l-81 223 79 222 c97 266 106 329 66 417 -58 124 -168 192 -538 334 -272
105 -376 162 -470 259 -30 31 -57 56 -60 56 -3 0 -37 -30 -76 -68z m267 -172
c101 -54 176 -87 329 -145 341 -128 458 -205 490 -321 18 -65 9 -105 -80 -356
l-81 -226 82 -229 c97 -269 103 -309 64 -388 -48 -98 -166 -171 -450 -276
-255 -94 -483 -215 -529 -281 -15 -21 -15 -20 -67 26 -92 83 -233 156 -478
247 -383 143 -490 226 -491 379 0 45 16 101 84 288 l84 233 -84 235 c-67 186
-84 246 -84 290 0 85 27 132 115 200 59 46 136 82 380 179 121 47 258 107 305
132 90 49 198 126 207 149 3 10 22 -2 63 -39 32 -28 96 -72 141 -97z"/>
</g>
</svg>
